{
  "accessors": [
    {
      "bufferView": 2,
      "componentType": 5126,
      "count": 1932,
      "max": [
        0.6096580028533936,
        0.08512020111083984,
        0.6109089255332947
      ],
      "min": [
        -0.6096577644348145,
        -1.2673463821411133,
        -0.6096579432487488
      ],
      "type": "VEC3"
    },
    {
      "bufferView": 2,
      "byteOffset": 23184,
      "componentType": 5126,
      "count": 1932,
      "max": [
        1.0,
        1.0,
        1.0
      ],
      "min": [
        -1.0,
        -1.0,
        -1.0
      ],
      "type": "VEC3"
    },
    {
      "bufferView": 1,
      "componentType": 5126,
      "count": 1932,
      "max": [
        1.0,
        1.0
      ],
      "min": [
        -0.010303916409611702,
        0.0
      ],
      "type": "VEC2"
    },
    {
      "bufferView": 0,
      "componentType": 5125,
      "count": 7146,
      "type": "SCALAR"
    },
    {
      "bufferView": 2,
      "byteOffset": 46368,
      "componentType": 5126,
      "count": 192,
      "max": [
        1.025455117225647,
        -0.49041658639907837,
        0.9969937801361084
      ],
      "min": [
        -1.025455117225647,
        -0.7872798442840576,
        -1.0193592309951782
      ],
      "type": "VEC3"
    },
    {
      "bufferView": 2,
      "byteOffset": 48672,
      "componentType": 5126,
      "count": 192,
      "max": [
        1.0,
        0.9976375102996826,
        1.0
      ],
      "min": [
        -1.0,
        0.0,
        -1.0
      ],
      "type": "VEC3"
    },
    {
      "bufferView": 1,
      "byteOffset": 15456,
      "componentType": 5126,
      "count": 192,
      "max": [
        0.0,
        0.0
      ],
      "min": [
        0.0,
        0.0
      ],
      "type": "VEC2"
    },
    {
      "bufferView": 0,
      "byteOffset": 28584,
      "componentType": 5125,
      "count": 576,
      "type": "SCALAR"
    },
    {
      "bufferView": 2,
      "byteOffset": 50976,
      "componentType": 5126,
      "count": 11596,
      "max": [
        16.79720115661621,
        1.0527238845825195,
        16.797237396240234
      ],
      "min": [
        -16.797107696533203,
        -33.22763442993164,
        -16.79712677001953
      ],
      "type": "VEC3"
    },
    {
      "bufferView": 2,
      "byteOffset": 190128,
      "componentType": 5126,
      "count": 11596,
      "max": [
        0.9998476505279541,
        1.0,
        0.9998476505279541
      ],
      "min": [
        -0.9998476505279541,
        0.0025025191716849804,
        -0.9998476505279541
      ],
      "type": "VEC3"
    },
    {
      "bufferView": 1,
      "byteOffset": 16992,
      "componentType": 5126,
      "count": 11596,
      "max": [
        1.0016136169433594,
        1.0
      ],
      "min": [
        -0.0015736347995698452,
        0.0
      ],
      "type": "VEC2"
    },
    {
      "bufferView": 0,
      "byteOffset": 30888,
      "componentType": 5125,
      "count": 32364,
      "type": "SCALAR"
    },
    {
      "bufferView": 2,
      "byteOffset": 329280,
      "componentType": 5126,
      "count": 261,
      "max": [
        1.0000001192092896,
        0.8714478015899658,
        1.000000238418579
      ],
      "min": [
        -0.9999998807907104,
        7.152557373046875e-07,
        -0.9999997019767761
      ],
      "type": "VEC3"
    },
    {
      "bufferView": 2,
      "byteOffset": 332412,
      "componentType": 5126,
      "count": 261,
      "max": [
        0.9999939203262329,
        1.0,
        0.9985266923904419
      ],
      "min": [
        -0.9999939203262329,
        0.0,
        -0.9994157552719116
      ],
      "type": "VEC3"
    },
    {
      "bufferView": 1,
      "byteOffset": 109760,
      "componentType": 5126,
      "count": 261,
      "max": [
        0.0,
        0.0
      ],
      "min": [
        0.0,
        0.0
      ],
      "type": "VEC2"
    },
    {
      "bufferView": 0,
      "byteOffset": 160344,
      "componentType": 5125,
      "count": 1176,
      "type": "SCALAR"
    },
    {
      "bufferView": 2,
      "byteOffset": 335544,
      "componentType": 5126,
      "count": 161,
      "max": [
        1.2517162561416626,
        2.1268820762634277,
        1.2517166137695313
      ],
      "min": [
        -1.2517160177230835,
        1.9073486328125e-06,
        -1.2517157793045044
      ],
      "type": "VEC3"
    },
    {
      "bufferView": 2,
      "byteOffset": 337476,
      "componentType": 5126,
      "count": 161,
      "max": [
        0.9923962950706482,
        1.0,
        0.9923962950706482
      ],
      "min": [
        -0.9923962950706482,
        0.12308323383331299,
        -0.9923962950706482
      ],
      "type": "VEC3"
    },
    {
      "bufferView": 1,
      "byteOffset": 111848,
      "componentType": 5126,
      "count": 161,
      "max": [
        0.0,
        0.0
      ],
      "min": [
        0.0,
        0.0
      ],
      "type": "VEC2"
    },
    {
      "bufferView": 0,
      "byteOffset": 165048,
      "componentType": 5125,
      "count": 864,
      "type": "SCALAR"
    },
    {
      "bufferView": 2,
      "byteOffset": 339408,
      "componentType": 5126,
      "count": 353,
      "max": [
        6.122691631317139,
        -1.5348196029663086e-06,
        6.122694492340088
      ],
      "min": [
        -6.1226911544799805,
        -4.60899543762207,
        -6.122689723968506
      ],
      "type": "VEC3"
    },
    {
      "bufferView": 2,
      "byteOffset": 343644,
      "componentType": 5126,
      "count": 353,
      "max": [
        1.0,
        0.8654661774635315,
        1.0
      ],
      "min": [
        -1.0,
        -1.0,
        -1.0
      ],
      "type": "VEC3"
    },
    {
      "bufferView": 1,
      "byteOffset": 113136,
      "componentType": 5126,
      "count": 353,
      "max": [
        0.0,
        0.0
      ],
      "min": [
        0.0,
        0.0
      ],
      "type": "VEC2"
    },
    {
      "bufferView": 0,
      "byteOffset": 168504,
      "componentType": 5125,
      "count": 1824,
      "type": "SCALAR"
    },
    {
      "bufferView": 2,
      "byteOffset": 347880,
      "componentType": 5126,
      "count": 1399,
      "max": [
        0.6473160982131958,
        1.9410500526428223,
        0.14057311415672302
      ],
      "min": [
        -0.6473160982131958,
        -0.013317912817001343,
        -0.14057311415672302
      ],
      "type": "VEC3"
    },
    {
      "bufferView": 2,
      "byteOffset": 364668,
      "componentType": 5126,
      "count": 1399,
      "max": [
        1.0,
        1.0,
        1.0
      ],
      "min": [
        -1.0,
        -1.0,
        -1.0
      ],
      "type": "VEC3"
    },
    {
      "bufferView": 1,
      "byteOffset": 115960,
      "componentType": 5126,
      "count": 1399,
      "max": [
        0.875,
        0.625
      ],
      "min": [
        0.0,
        0.0
      ],
      "type": "VEC2"
    },
    {
      "bufferView": 0,
      "byteOffset": 175800,
      "componentType": 5125,
      "count": 3480,
      "type": "SCALAR"
    },
    {
      "bufferView": 2,
      "byteOffset": 381456,
      "componentType": 5126,
      "count": 834,
      "max": [
        1.000007152557373,
        4.6849141120910645,
        1.000000238418579
      ],
      "min": [
        -0.999992847442627,
        -4.684913158416748,
        -0.9999997019767761
      ],
      "type": "VEC3"
    },
    {
      "bufferView": 2,
      "byteOffset": 391464,
      "componentType": 5126,
      "count": 834,
      "max": [
        1.0,
        1.0,
        1.0
      ],
      "min": [
        -1.0,
        -1.0,
        -1.0
      ],
      "type": "VEC3"
    },
    {
      "bufferView": 1,
      "byteOffset": 127152,
      "componentType": 5126,
      "count": 834,
      "max": [
        0.0,
        0.0
      ],
      "min": [
        0.0,
        0.0
      ],
      "type": "VEC2"
    },
    {
      "bufferView": 0,
      "byteOffset": 189720,
      "componentType": 5125,
      "count": 3072,
      "type": "SCALAR"
    }
  ],
  "asset": {
    "extras": {
      "author": "Sinord (https://sketchfab.com/sinord)",
      "license": "CC-BY-4.0 (http://creativecommons.org/licenses/by/4.0/)",
      "source": "https://sketchfab.com/3d-models/microphone-192eee83851d4fd78531beccb81cd267",
      "title": "Microphone"
    },
    "generator": "Sketchfab-12.66.0",
    "version": "2.0"
  },
  "bufferViews": [
    {
      "buffer": 0,
      "byteLength": 202008,
      "name": "floatBufferViews",
      "target": 34963
    },
    {
      "buffer": 0,
      "byteLength": 133824,
      "byteOffset": 202008,
      "byteStride": 8,
      "name": "floatBufferViews",
      "target": 34962
    },
    {
      "buffer": 0,
      "byteLength": 401472,
      "byteOffset": 335832,
      "byteStride": 12,
      "name": "floatBufferViews",
      "target": 34962
    }
  ],
  "buffers": [
    {
      "byteLength": 737304,
      "uri": "scene.bin"
    }
  ],
  "materials": [
    {
      "doubleSided": true,
      "name": "Metall",
      "pbrMetallicRoughness": {
        "baseColorFactor": [
          0.0100218,
          0.0100218,
          0.0100218,
          1.0
        ],
        "metallicFactor": 0.674419,
        "roughnessFactor": 0.414729
      }
    },
    {
      "doubleSided": true,
      "emissiveFactor": [
        0.0,
        0.00871893,
        1.0
      ],
      "name": "material"
    },
    {
      "doubleSided": true,
      "name": "metall_rough",
      "pbrMetallicRoughness": {
        "baseColorFactor": [
          0.00257944,
          0.00257944,
          0.00257944,
          1.0
        ],
        "metallicFactor": 0.75969,
        "roughnessFactor": 0.375969
      }
    }
  ],
  "meshes": [
    {
      "name": "Object_0",
      "primitives": [
        {
          "attributes": {
            "NORMAL": 1,
            "POSITION": 0,
            "TEXCOORD_0": 2
          },
          "indices": 3,
          "material": 0,
          "mode": 4
        }
      ]
    },
    {
      "name": "Object_1",
      "primitives": [
        {
          "attributes": {
            "NORMAL": 5,
            "POSITION": 4,
            "TEXCOORD_0": 6
          },
          "indices": 7,
          "material": 1,
          "mode": 4
        }
      ]
    },
    {
      "name": "Object_2",
      "primitives": [
        {
          "attributes": {
            "NORMAL": 9,
            "POSITION": 8,
            "TEXCOORD_0": 10
          },
          "indices": 11,
          "material": 2,
          "mode": 4
        }
      ]
    },
    {
      "name": "Object_3",
      "primitives": [
        {
          "attributes": {
            "NORMAL": 13,
            "POSITION": 12,
            "TEXCOORD_0": 14
          },
          "indices": 15,
          "material": 2,
          "mode": 4
        }
      ]
    },
    {
      "name": "Object_4",
      "primitives": [
        {
          "attributes": {
            "NORMAL": 17,
            "POSITION": 16,
            "TEXCOORD_0": 18
          },
          "indices": 19,
          "material": 2,
          "mode": 4
        }
      ]
    },
    {
      "name": "Object_5",
      "primitives": [
        {
          "attributes": {
            "NORMAL": 21,
            "POSITION": 20,
            "TEXCOORD_0": 22
          },
          "indices": 23,
          "material": 2,
          "mode": 4
        }
      ]
    },
    {
      "name": "Object_6",
      "primitives": [
        {
          "attributes": {
            "NORMAL": 25,
            "POSITION": 24,
            "TEXCOORD_0": 26
          },
          "indices": 27,
          "material": 0,
          "mode": 4
        }
      ]
    },
    {
      "name": "Object_7",
      "primitives": [
        {
          "attributes": {
            "NORMAL": 29,
            "POSITION": 28,
            "TEXCOORD_0": 30
          },
          "indices": 31,
          "material": 0,
          "mode": 4
        }
      ]
    }
  ],
  "nodes": [
    {
      "children": [
        1
      ],
      "matrix": [
        0.6276363134384155,
        0.0,
        0.0,
        0.0,
        0.0,
        1.393632572540361e-16,
        -0.6276363134384155,
        0.0,
        0.0,
        0.6276363134384155,
        1.393632572540361e-16,
        0.0,
        2.195918724634538e-10,
        -0.0009679283248260617,
        -2.1959184492280144e-10,
        1.0
      ],
      "name": "Sketchfab_model"
    },
    {
      "children": [
        2
      ],
      "name": "root"
    },
    {
      "children": [
        3,
        13
      ],
      "matrix": [
        1.0,
        0.0,
        0.0,
        0.0,
        0.0,
        2.220446049250313e-16,
        1.0,
        0.0,
        0.0,
        -1.0,
        2.220446049250313e-16,
        0.0,
        0.0,
        0.0,
        0.0,
        1.0
      ],
      "name": "GLTF_SceneRootNode"
    },
    {
      "children": [
        4,
        5,
        7,
        9,
        11
      ],
      "matrix": [
        0.09840768694961372,
        7.551710957261831e-10,
        -0.022112332414103205,
        0.0,
        -0.005723092252567707,
        0.09742466176638555,
        -0.025469777979773327,
        0.0,
        0.02135887309434651,
        0.026104853481112408,
        0.09505452782710683,
        0.0,
        0.014156744815409184,
        0.3562979996204376,
        0.026445502415299416,
        1.0
      ],
      "name": "Body.001_4"
    },
    {
      "mesh": 0,
      "name": "Object_4"
    },
    {
      "children": [
        6
      ],
      "matrix": [
        0.25082719326019287,
        0.0,
        0.0,
        0.0,
        0.0,
        0.0,
        0.25082719326019287,
        0.0,
        0.0,
        -0.2508271634578705,
        0.0,
        0.0,
        0.0,
        -0.39580875635147095,
        0.7341046333312988,
        1.0
      ],
      "name": "LED Indicator.001_0"
    },
    {
      "mesh": 1,
      "name": "Object_6"
    },
    {
      "children": [
        8
      ],
      "matrix": [
        0.03502778708934784,
        0.0,
        0.0,
        0.0,
        0.0,
        0.03502779081463814,
        0.0,
        0.0,
        0.0,
        0.0,
        0.03502779081463814,
        0.0,
        0.0,
        1.2318196296691895,
        0.0,
        1.0
      ],
      "name": "Mic.001_1"
    },
    {
      "mesh": 2,
      "name": "Object_8"
    },
    {
      "children": [
        10
      ],
      "matrix": [
        0.06024157772706083,
        0.24348556064225926,
        2.1356681602186644e-08,
        0.0,
        4.7073978151644555e-09,
        -2.31653036065507e-08,
        0.2508271634578694,
        0.0,
        0.24348558957228142,
        -0.06024158488473358,
        -1.0133265115794444e-08,
        0.0,
        0.0,
        -0.3958088755607605,
        0.4677150845527649,
        1.0
      ],
      "name": "Mode Selector.001_2"
    },
    {
      "mesh": 3,
      "name": "Object_10"
    },
    {
      "children": [
        12
      ],
      "matrix": [
        0.08134536445140839,
        0.0,
        0.0,
        0.0,
        0.0,
        -1.3713804501379924e-08,
        0.08134537190198783,
        0.0,
        0.0,
        -0.08134536445140723,
        -1.3713803245305936e-08,
        0.0,
        0.0,
        -0.8632307052612305,
        0.5254756212234497,
        1.0
      ],
      "name": "Volume Button.001_3"
    },
    {
      "mesh": 4,
      "name": "Object_12"
    },
    {
      "children": [
        14,
        15
      ],
      "matrix": [
        0.016395736495279617,
        0.0,
        -0.003684142778339074,
        0.0,
        0.0,
        0.01680455543100834,
        0.0,
        0.0,
        0.003684142778339074,
        0.0,
        0.016395736495279617,
        0.0,
        0.013459104113280773,
        0.1775234043598175,
        0.026602262631058693,
        1.0
      ],
      "name": "Stand.001_7"
    },
    {
      "mesh": 5,
      "name": "Object_14"
    },
    {
      "children": [
        16,
        17
      ],
      "matrix": [
        6.002027988433838,
        0.0,
        0.0,
        0.0,
        0.0,
        6.002028942108154,
        0.0,
        0.0,
        0.0,
        0.0,
        7.673831462860107,
        0.0,
        0.04255107045173645,
        0.06584358215332031,
        0.0,
        1.0
      ],
      "name": "Fork.001_6"
    },
    {
      "mesh": 6,
      "name": "Object_16"
    },
    {
      "children": [
        18
      ],
      "matrix": [
        0.0,
        -0.17422370612621307,
        -0.0,
        0.0,
        0.17422370612621307,
        0.0,
        0.0,
        0.0,
        0.0,
        0.0,
        0.13626769185066223,
        0.0,
        0.0,
        1.7615069150924683,
        0.0,
        1.0
      ],
      "name": "Fork Buttons.001_5"
    },
    {
      "mesh": 7,
      "name": "Object_18"
    }
  ],
  "scene": 0,
  "scenes": [
    {
      "name": "Sketchfab_Scene",
      "nodes": [
        0
      ]
    }
  ]
}
